PathFileType	4	(X/Y/Z)	 s06c0102.trc
DataRate	CameraRate	NumFrames	NumMarkers	Units	OrigDataRate	OrigDataStartFrame	OrigNumFrames
200	200	6	48	mm	200	251	2000
Frame#	Time	racr			lacr			c7			jug			rlel			rdr			llel			ldr			s2			lic			ric			lasi			rasi			rpsi			lpsi			rgt			lgt			rth1			rth2			rth3			rth4			rlfc			rmfc			rsh1			rsh2			rsh3			rsh4			rlmal			rcal			rtoe			rmt5			lth1			lth2			lth4			lth3			llfc			lmfc			llmal			lcal			lmt5			lsh1			lsh2			lsh3			lsh4			ltoe			SBIKE			LBIKE			RBIKE			
		X1	Y1	Z1	X2	Y2	Z2	X3	Y3	Z3	X4	Y4	Z4	X5	Y5	Z5	X6	Y6	Z6	X7	Y7	Z7	X8	Y8	Z8	X9	Y9	Z9	X10	Y10	Z10	X11	Y11	Z11	X12	Y12	Z12	X13	Y13	Z13	X14	Y14	Z14	X15	Y15	Z15	X16	Y16	Z16	X17	Y17	Z17	X18	Y18	Z18	X19	Y19	Z19	X20	Y20	Z20	X21	Y21	Z21	X22	Y22	Z22	X23	Y23	Z23	X24	Y24	Z24	X25	Y25	Z25	X26	Y26	Z26	X27	Y27	Z27	X28	Y28	Z28	X29	Y29	Z29	X30	Y30	Z30	X31	Y31	Z31	X32	Y32	Z32	X33	Y33	Z33	X34	Y34	Z34	X35	Y35	Z35	X36	Y36	Z36	X37	Y37	Z37	X38	Y38	Z38	X39	Y39	Z39	X40	Y40	Z40	X41	Y41	Z41	X42	Y42	Z42	X43	Y43	Z43	X44	Y44	Z44	X45	Y45	Z45	X46	Y46	Z46	X47	Y47	Z47	X48	Y48	Z48	
251	1.2550	499.333706	1324.721421	-48.519970	520.302349	1327.195859	-357.046746	495.071558	1409.780447	-205.153503	517.191998	1254.425600	-203.143341	509.882634	1063.136704	41.811064	708.745136	934.591860	-43.766660	525.547793	1075.839886	-467.388486	633.500580	833.852820	-430.690245	-21.141553	1178.839002	-211.843403	148.465306	1133.707543	-389.301389	139.647844	1126.997242	-60.400597	150.312095	1070.715738	-362.164877	158.973768	1078.197819	-95.274524	20.715445	1216.193377	-189.895014	11.598666	1210.949900	-250.334051	110.718947	1077.356338	-29.592630	95.390542	1078.370145	-424.360632	192.947545	981.761425	-20.763132	264.579995	926.666056	-24.587524	298.024040	845.802994	-29.967386	289.883699	948.611004	-42.731699	343.167058	746.876882	-45.904813	332.889221	719.456198	-155.234607	323.605689	624.219983	-18.815616	328.215972	537.997970	-37.523525	291.952927	459.175329	-39.537996	347.844947	538.526585	-72.635480	265.370445	377.578549	-45.157733	202.221900	344.729585	-89.478471	479.651928	332.430394	-99.262914	384.613861	310.768123	-26.532955	144.241320	973.275183	-435.070887	216.062134	923.861294	-433.326051	243.152570	946.386380	-422.509923	254.494847	843.090687	-432.833818	284.532535	730.509244	-411.868161	290.368812	715.204115	-295.590495	24.757955	469.237571	-375.484282	-48.426791	488.720590	-323.133534	75.081608	335.659710	-395.939800	217.966137	643.374832	-426.384134	173.366146	574.298942	-398.145574	96.433131	529.635576	-389.911693	193.843152	562.912598	-366.535366	147.496882	285.966985	-340.636175	-154.538800	858.170325	-212.449979	-49.299940	84.050559	-413.855551	-48.849847	80.020623	-16.309851	
252	1.2600	499.996832	1324.892228	-48.566797	520.832507	1327.113272	-357.066612	495.582874	1409.806491	-205.312264	517.912007	1254.611286	-203.164336	510.133833	1063.345291	41.534049	708.895781	934.621902	-43.767507	526.065870	1076.102602	-468.008185	633.566899	833.872001	-430.725008	-20.505864	1178.512384	-211.676167	149.133838	1133.847511	-389.352599	140.373943	1126.542700	-60.610018	151.265678	1070.953379	-362.264739	160.050206	1078.042193	-95.704338	21.356530	1215.773777	-189.846279	12.224164	1210.667794	-250.311798	111.319484	1076.207205	-29.971724	96.267242	1078.596346	-424.590059	193.417500	980.480120	-20.383609	264.495348	924.668788	-24.111749	297.330692	843.522412	-29.677781	290.076475	946.511522	-42.122846	342.100841	744.416585	-45.134063	332.112098	717.421505	-154.729162	322.612900	621.842524	-18.110236	327.436871	535.734245	-37.072260	291.467688	456.671457	-39.038590	347.256374	536.246658	-71.950957	265.474080	375.035603	-44.836388	202.224760	342.478740	-89.247602	479.593391	329.272741	-99.207975	384.518716	307.822721	-26.481536	145.295159	973.780308	-435.510077	217.397130	924.772510	-433.893419	244.336406	947.373919	-423.050536	256.272657	844.251094	-433.723614	286.680994	731.930189	-412.695081	291.625059	715.809344	-296.631476	25.785035	472.000368	-375.540138	-47.202040	491.965112	-323.107728	75.486612	338.240315	-395.895501	219.795014	645.018429	-426.914982	175.019126	576.171964	-398.610308	97.815302	531.930478	-390.110562	195.394859	564.789886	-366.960922	147.709761	288.196155	-340.600965	-154.530722	858.176450	-212.465238	-49.284411	84.061223	-413.846356	-48.845912	80.016091	-16.305498	
253	1.2650	500.749241	1324.697350	-49.214621	521.291286	1327.041779	-357.130662	496.034003	1409.787028	-205.434399	518.485502	1254.761879	-203.192990	510.457760	1063.506841	41.310026	709.086713	934.610929	-43.775543	526.389512	1076.050010	-468.200391	633.663801	833.862438	-430.688944	-19.986799	1178.212815	-211.510761	149.880246	1133.894283	-389.298594	141.003908	1125.983106	-60.872476	152.135259	1071.001960	-362.306472	160.964602	1077.723016	-96.137193	22.124663	1215.191566	-189.814716	12.870455	1210.247733	-250.347670	111.900734	1075.017274	-30.295951	97.341781	1078.703699	-424.757922	193.654356	978.759075	-20.295990	264.457889	922.709574	-23.561536	296.609280	841.349851	-29.044587	290.201687	944.342578	-41.534296	341.119424	742.099572	-44.354844	331.323151	715.095179	-153.910846	321.692412	619.463040	-17.447345	326.786207	533.432586	-36.292714	291.084202	454.292400	-38.582960	346.760526	534.045090	-71.192384	265.710687	372.488933	-44.659043	202.247701	340.369524	-88.999999	479.494872	326.030812	-99.354759	384.479608	304.917622	-26.417535	146.558650	974.201781	-435.904041	218.807489	925.605444	-434.197109	245.601450	948.457497	-423.396838	258.273278	845.365720	-434.596817	288.999036	733.269137	-413.399949	293.322909	717.386046	-298.117313	26.914431	474.785839	-375.585202	-46.037957	495.157332	-323.135099	75.996796	340.941077	-395.911647	221.785792	646.611437	-427.415994	176.606832	578.064667	-398.897040	99.237511	534.201227	-390.261994	196.951797	566.538889	-367.229627	147.948777	290.505759	-340.643344	-154.478099	858.192075	-212.495197	-49.274360	84.066652	-413.853852	-48.829489	79.998582	-16.284538	
254	1.2700	501.450450	1325.053417	-49.228948	521.839632	1326.933078	-357.243638	496.430748	1409.708646	-205.548352	519.119005	1254.876694	-203.190756	510.816186	1063.711667	41.210095	709.228247	934.619541	-43.768763	526.672680	1075.935135	-468.323363	633.750801	833.882145	-430.655691	-19.349402	1177.877107	-211.726314	150.686222	1133.882861	-389.414550	141.701945	1125.316752	-61.145354	153.214786	1071.095353	-362.408488	161.995699	1077.381725	-96.662427	22.744760	1214.745138	-189.819764	13.498671	1209.912086	-250.502619	112.609921	1073.732634	-30.807990	98.458253	1078.608614	-424.928771	193.859047	977.353337	-20.066196	264.418544	920.795717	-22.974552	296.052357	839.191752	-28.590998	290.281094	942.202417	-40.921334	340.080992	739.801999	-43.488602	330.550508	712.837762	-153.050458	320.806110	617.177885	-16.757886	326.242223	531.129052	-35.700215	290.726487	451.931679	-38.172216	346.353766	531.957294	-70.509439	265.869078	370.099952	-44.406504	202.253553	338.444930	-88.773763	479.410235	322.716293	-99.267251	384.355527	301.959827	-26.350728	147.977385	974.577951	-436.334617	220.553363	926.328193	-434.711835	247.224122	949.201702	-423.659841	260.295698	846.260324	-435.139495	291.411496	734.484735	-414.056669	294.648415	718.188725	-299.240366	27.988805	477.652217	-375.596411	-44.836258	498.355370	-323.136223	76.501830	343.612081	-395.884250	223.821000	648.127528	-427.870538	178.302801	579.904074	-399.177765	100.677729	536.514191	-390.422684	198.550444	568.438009	-367.501893	148.235789	292.779923	-340.602102	-154.406452	858.222753	-212.537855	-49.266478	84.054881	-413.825273	-48.817523	80.010300	-16.287722	
255	1.2750	502.072189	1325.230305	-49.280814	522.372091	1326.772621	-357.259385	496.839606	1409.633718	-205.698966	519.790157	1255.003471	-203.157590	511.171070	1063.871215	41.228885	709.327370	934.586928	-43.749066	526.939730	1075.745113	-468.398416	633.718499	834.047778	-430.503560	-18.638367	1177.191205	-211.957486	151.538263	1133.812211	-389.472598	142.295220	1124.879798	-61.347286	154.323369	1071.126364	-362.495942	162.837317	1077.126292	-96.965971	23.305233	1214.215969	-189.945429	14.130955	1209.501460	-250.747662	112.862689	1072.675524	-31.082420	99.639842	1078.473049	-425.150370	193.727540	976.035551	-19.841630	264.348198	918.966824	-22.369363	295.342788	837.146024	-27.971483	290.375222	940.203926	-40.253853	339.070544	737.609300	-42.587070	330.090821	710.729629	-152.025556	319.942209	614.996184	-16.046106	325.696432	528.953790	-35.105735	290.433841	449.669758	-37.746549	345.873935	529.825821	-69.826349	266.002847	367.798014	-44.159300	202.284366	336.641402	-88.598689	479.454494	319.625276	-98.973672	384.223997	299.003787	-26.265140	149.527510	974.911628	-436.662152	222.363814	927.026317	-434.941975	248.865597	950.020382	-423.704812	262.671217	847.250250	-435.663811	293.880259	735.767148	-414.578707	295.711538	718.615837	-300.352232	29.087831	480.614878	-375.539162	-43.641231	501.544334	-323.268262	77.092782	346.305173	-395.823628	225.878763	649.760542	-428.193554	180.051498	581.866429	-399.463324	102.108502	538.852999	-390.519361	200.161979	570.212911	-367.659096	148.605176	295.194146	-340.541797	-154.339861	858.248390	-212.586491	-49.252470	84.072769	-413.841353	-48.826662	80.005933	-16.280729	
256	1.2800	502.601661	1325.314694	-49.408279	522.895925	1326.610031	-357.310195	497.192749	1409.563482	-205.818360	520.412228	1255.122251	-203.198207	511.492544	1064.025091	41.353024	709.413137	934.542384	-43.716668	527.124114	1075.539635	-468.452907	633.745050	834.088817	-430.479624	-18.153515	1176.716160	-211.972789	152.380547	1133.715808	-389.519706	142.794134	1124.487603	-61.560160	155.382825	1071.082835	-362.484057	163.841543	1077.039809	-97.292208	23.883649	1213.576538	-190.311721	14.745040	1209.095157	-251.062978	113.336843	1071.539282	-31.455460	100.955911	1078.289686	-425.393577	193.943565	974.683522	-19.510076	264.229813	917.181843	-21.761147	294.748072	835.169429	-27.312252	290.451346	938.281386	-39.461811	338.063010	735.493029	-41.668186	330.248757	708.788578	-150.893048	319.142201	612.901363	-15.335603	325.222599	526.835925	-34.474743	290.132430	447.518315	-37.354322	345.434877	527.789704	-69.095246	266.175613	365.499033	-43.958571	202.358738	334.952829	-88.466810	479.591989	316.627218	-98.303964	384.079341	296.061227	-26.199803	151.225958	975.228594	-436.920770	224.345572	927.744020	-435.065381	250.629257	950.841395	-423.594548	265.082105	848.213323	-435.923509	296.489998	737.057215	-414.932460	302.500235	721.350562	-299.835088	30.324083	483.463007	-375.565623	-42.417035	504.862249	-323.284699	77.724347	348.984368	-395.795727	227.986879	651.333237	-428.451661	181.844018	583.745584	-399.656351	103.716594	541.298700	-390.710183	201.854574	572.015625	-367.765498	149.080665	297.644202	-340.536774	-154.346417	858.252061	-212.627095	-49.243265	84.069565	-413.835775	-48.815673	80.032325	-16.273480	
